<svg xmlns="http://www.w3.org/2000/svg" width="1024" height="1024" viewBox="0 0 1024 1024"><rect width="1024" height="1024" fill="#0b1220" rx="224" ry="224"/><g fill="#f97316"><rect width="832" height="44" x="96" y="180" rx="22" ry="22"/><rect width="56" height="280" x="380" y="224" rx="20" ry="20"/><rect width="56" height="280" x="588" y="224" rx="20" ry="20"/><path d="M360 460q-20 0-20 20l8 280q2 20 24 20h280q22 0 24-20l8-280q0-20-20-20Z"/><rect width="80" height="180" x="420" y="780" rx="32" ry="32"/><rect width="80" height="180" x="524" y="780" rx="32" ry="32"/></g><g fill="#0b1220"><path d="M436 224h152v256H436z"/><circle cx="512" cy="520" r="56"/><path d="M500 780h24v180h-24z"/></g></svg>